<?xml version="1.0" encoding="utf-8"?>
<!-- Generator: Adobe Illustrator 24.2.0, SVG Export Plug-In . SVG Version: 6.00 Build 0)  -->
<svg version="1.1" id="Layer_1" xmlns="http://www.w3.org/2000/svg"
	xmlns:xlink="http://www.w3.org/1999/xlink" x="0px" y="0px"
	viewBox="0 0 1000 1000" style="enable-background:new 0 0 1000 1000;" xml:space="preserve">
<style type="text/css">
	.st0{clip-path:url(#SVGID_2_);fill-rule:evenodd;clip-rule:evenodd;fill:#FF771E;}
	.st1{fill-rule:evenodd;clip-rule:evenodd;fill:#FFFFFF;}
	.st2{fill:#FFFFFF;}
</style>
<g>
	<g>
		<defs>
			<rect id="SVGID_1_" x="-0.2" y="-0.2" width="50" height="50"/>
		</defs>
		<clipPath id="SVGID_2_">
			<use xlink:href="#SVGID_1_"  style="overflow:visible;"/>
		</clipPath>
		<rect x="-0.3" y="0.1" class="st0" width="1000.3" height="999.9"/>
	</g>
	<g>
		<path class="st1" d="M664.8,379.1c0-19,0-38.1,0-57.1c-20.5,0-41.1,0-61.6,0c0,19,0,38.1,0,57.1c-13.1,123.1-192.2,123.1-205.3,0
			c0-15.7,0-31.5,0-47.2c0-7.3,3-10.3,10.3-10.3c64.7,0,129.4,0,194.2,0c0-19.1,0-38.3,0-57.4c-85.3,0-170.6,0-255.9,0
			c-7.3,0-10.3,3-10.3,10.3c0,34.9,0,69.8,0,104.6c7.8,84.9,79.1,149.8,164.3,149.8C585.7,528.9,656.9,464,664.8,379.1L664.8,379.1z
			 M664.8,379.1"/>
		<path class="st1" d="M352.5,717.9c-8.7,0-17.4,0-26.1,0c0-32.4,0-64.9,0-97.3c8.7,0,17.4,0,26.1,0c26.7,0.1,47.7,22.2,47.7,48.7
			C400.2,695.7,379.2,717.8,352.5,717.9L352.5,717.9z M352.8,603.2c-14.6,0-29.2,0-43.9,0c0,44,0,88,0,132c14.6,0,29.3,0,43.9,0
			c36.4-0.1,65.8-29.6,65.8-66C418.5,632.9,389.1,603.4,352.8,603.2L352.8,603.2z M352.8,603.2"/>
		<rect x="437.8" y="639.6" class="st1" width="17.1" height="96.2"/>
		<rect x="258.7" y="639" class="st1" width="17.1" height="96.2"/>
		<path class="st1" d="M172.6,717.9c-8.7,0-17.4,0-26.1,0c0-32.4,0-64.9,0-97.3c8.7,0,17.4,0,26.1,0c26.7,0.1,47.7,22.2,47.7,48.7
			C220.4,695.7,199.4,717.8,172.6,717.9L172.6,717.9z M172.9,603.2c-14.6,0-29.3,0-43.9,0c0,44,0,88,0,132c14.6,0,29.2,0,43.9,0
			c36.4-0.1,65.8-29.6,65.8-66C238.7,632.9,209.3,603.4,172.9,603.2L172.9,603.2z M172.9,603.2"/>
		<path class="st1" d="M267.3,596.4c6,0,10.8,4.8,10.8,10.8c0,4.4-2.6,8.3-6.7,10c-4,1.7-8.7,0.7-11.7-2.3c-3.1-3.1-4-7.7-2.3-11.7
			C259,599.1,263,596.4,267.3,596.4L267.3,596.4z M267.3,596.4"/>
		<path class="st1" d="M446.3,597c6,0,10.8,4.8,10.8,10.8c0,4.4-2.6,8.3-6.6,10s-8.7,0.7-11.7-2.3c-3.1-3.1-4-7.7-2.3-11.7
			C438,599.7,442,597,446.3,597L446.3,597z M446.3,597"/>
		<g>
			<g>
				<path class="st2" d="M521,606.3h66.1v13.3h-50.2v40.8h46.4v13.1h-46.4v55.5H521V606.3z"/>
			</g>
			<g>
				<path class="st2" d="M671.2,689.2c0,31.2-21.6,44.8-42.1,44.8c-22.9,0-40.5-16.8-40.5-43.5c0-28.3,18.5-44.8,41.9-44.8
					C654.8,645.7,671.2,663.3,671.2,689.2z M604.2,690c0,18.5,10.6,32.5,25.7,32.5c14.7,0,25.7-13.8,25.7-32.8
					c0-14.3-7.2-32.5-25.3-32.5S604.2,674,604.2,690z"/>
			</g>
			<g>
				<path class="st2" d="M771.7,686.7c0,31.2-21.6,44.8-42.1,44.8c-22.9,0-40.5-16.8-40.5-43.5c0-28.3,18.5-44.8,41.9-44.8
					C755.3,643.2,771.7,660.8,771.7,686.7z M704.7,687.5c0,18.5,10.6,32.5,25.7,32.5c14.7,0,25.7-13.8,25.7-32.8
					c0-14.3-7.2-32.5-25.3-32.5S704.7,671.5,704.7,687.5z"/>
				<path class="st2" d="M870.3,605.7v102.1c0,7.5,0.2,16.1,0.7,21.8h-13.8l-0.7-14.7h-0.3c-4.7,9.4-15,16.6-28.8,16.6
					c-20.4,0-36.1-17.3-36.1-42.9c-0.2-28.1,17.3-45.4,37.9-45.4c12.9,0,21.6,6.1,25.5,12.9h0.3v-50.4H870.3z M854.9,679.5
					c0-1.9-0.2-4.5-0.7-6.5c-2.3-9.8-10.6-17.8-22.2-17.8c-15.9,0-25.3,14-25.3,32.6c0,17.1,8.4,31.2,25,31.2
					c10.3,0,19.7-6.8,22.5-18.3c0.5-2.1,0.7-4.2,0.7-6.6V679.5z"/>
			</g>
		</g>
	</g>
</g>
</svg>